<svg width="18" height="17" viewBox="0 0 18 17" fill="none" xmlns="http://www.w3.org/2000/svg">
<g id="Group">
<g id="Group_2">
<path id="Vector" fill-rule="evenodd" clip-rule="evenodd" d="M11.1674 13.5419C11.1224 13.4445 11.0921 13.3392 11.0921 13.2224V8.46344C11.0921 8.07641 11.4138 7.80388 11.7536 7.80388H11.7772C12.1159 7.80388 12.4455 8.07641 12.4455 8.46344V12.4254H13.4603V10.1799H14.9151L15.0996 6.73781H15.9614C16.4114 6.73781 16.777 5.34082 16.777 5.34082C16.777 4.91714 16.4125 4.57132 15.9614 4.57132H13.7922L12.6278 0.406673C12.4579 0.0436827 12.036 -0.102887 11.685 0.0791801L11.604 0.120403C11.2552 0.303615 11.1101 0.745616 11.28 1.10861L12.1136 4.57018H4.62741L5.49147 1.11319C5.66473 0.753631 5.52184 0.309341 5.17532 0.122693L5.09657 0.0814703C4.74667 -0.104032 4.32252 0.0379573 4.14926 0.398657L2.94206 4.57018H0.815676C0.365648 4.57018 0 4.91599 0 5.33967C0 5.33967 0.364523 6.73667 0.815676 6.73667H1.53122L2.03638 14.3824C2.03638 14.3824 2.09488 15.8813 4.41365 15.8813H11.1686V13.5419H11.1674ZM13.4648 5.62021H14.6597V6.83629H13.4648V5.62021ZM3.47984 6.80079H2.15001V5.51258H3.47984V6.80079ZM5.63098 13.3403C5.63098 13.7411 5.34858 14.0652 5.00206 14.0652H4.97619C4.62629 14.0652 4.34502 13.7411 4.34502 13.3403V8.38329C4.34502 7.98251 4.62629 7.6596 4.97619 7.6596H5.00206C5.34858 7.6596 5.63098 7.98251 5.63098 8.38329V13.3403ZM9.00394 13.117C9.00394 13.4995 8.74517 13.8098 8.42565 13.8098H8.40203C8.08251 13.8098 7.82374 13.4995 7.82374 13.117V8.42337C7.82374 8.04091 8.08138 7.73174 8.40203 7.73174H8.42565C8.74405 7.73174 9.00394 8.04206 9.00394 8.42337V13.117Z" fill="#434343"/>
<path id="Vector_2" fill-rule="evenodd" clip-rule="evenodd" d="M18 13.6496H15.7408V11.467H14.6866V13.6496H12.4331V14.6733H14.6866V17.0001H15.7408V14.6733H18V13.6496Z" fill="#434343"/>
</g>
</g>
</svg>
